<svg xmlns="http://www.w3.org/2000/svg" width="600" height="450" fill="none" viewBox="0 0 600 450"><rect width="600" height="450" fill="#005A9E"/><rect width="600" height="151" y="299" fill="#0078D4"/><rect width="228" height="151" x="186" y="299" fill="#005A9E"/><path stroke="#26FC90" stroke-miterlimit="10" stroke-width="2" d="M284 128.356V216.64"/><path stroke="#26FC90" stroke-miterlimit="10" stroke-width="2" d="M294.281 128.356V216.64"/><path stroke="#26FC90" stroke-miterlimit="10" stroke-width="2" d="M304.961 128.356V216.64"/><path stroke="#26FC90" stroke-miterlimit="10" stroke-width="2" d="M315.542 128.356V216.64"/><path fill="#2B88D8" d="M0 261.156H24.4561V215.573H43.7208V233.5H63.5V202.015H92.0322V219.843H135.253V207H155.216V219.843H161.904V190H179.871V237.99H194.145V255.818H215.406V298.839H0V261.156Z"/><path fill="#2B88D8" d="M384.794 259.661H400.765V211.623H426V235.855H438.829V181.412H465V235.108H502.578V186.429H515.854V198.812H543.204V244.396H561.171V262.864H582.432V214.185H600V299.053H384.794V259.661Z"/><path stroke="#26FC90" stroke-miterlimit="10" stroke-width="2" d="M245 102H129V176"/><path stroke="#26FC90" stroke-miterlimit="10" stroke-width="2" d="M255 112L141 112L141 176"/><path stroke="#26FC90" stroke-miterlimit="10" stroke-width="2" d="M248 92H117V176"/><path stroke="#26FC90" stroke-miterlimit="10" stroke-width="2" d="M360.5 113.247H452.271V151.5"/><path stroke="#26FC90" stroke-miterlimit="10" stroke-width="2" d="M360 102H462V151"/><path stroke="#26FC90" stroke-miterlimit="10" stroke-width="2" d="M353.5 92L471.607 92V150.987"/><path fill="#51E5FF" d="M345.467 86.4024C343.67 86.4024 341.973 86.6159 340.376 87.1496C339.178 66.76 323.307 50.5337 303.943 50.5337C289.669 50.5337 277.292 59.2874 271.303 72.0976C270.404 71.9909 269.506 71.9909 268.607 71.9909C253.934 71.9909 242.056 84.6944 242.056 100.387C242.056 116.079 253.934 128.783 268.607 128.783H345.467C356.347 128.783 365.23 119.282 365.23 107.646C365.23 96.0101 356.347 86.4024 345.467 86.4024Z"/><path fill="#004578" d="M148 175H107V299H148V175Z"/><path fill="#004578" d="M121 249H51V299H121V249Z"/><path fill="#004578" d="M69 274H0V299H69V274Z"/><path fill="#004578" d="M230 249H161V299H230V249Z"/><path fill="#004578" d="M186 207H92V299H186V207Z"/><path fill="#004578" d="M486.309 151H438.996V298.958H486.309V151Z"/><path fill="#004578" d="M462 222H414V299H462V222Z"/><path fill="#004578" d="M514 207H482V299H514V207Z"/><path fill="#004578" d="M561 232H514V299H561V232Z"/><path fill="#004578" d="M600 251H553V299H600V251Z"/><path fill="#004578" d="M421 243H374V299H421V243Z"/><path fill="#004578" d="M384.589 215.359H215V332.039H384.589V215.359Z"/><path fill="#0078D4" d="M384.589 332.252H215V382.426H384.589V332.252Z"/><path fill="#106EBE" d="M384.589 382.639H215V388.618H384.589V382.639Z"/><path fill="#2B88D8" d="M377.602 337.483H221.987V362.89H377.602V337.483Z"/><path fill="#2B88D8" d="M317.911 367.16H281.578V377.942H317.911V367.16Z"/><path fill="#2B88D8" d="M377.802 221.764H221.688V325.634H377.802V221.764Z"/><path fill="#51E5FF" d="M280 232H233V311H280V232Z"/><path fill="#fff" d="M333.914 232.012H287V269.162H333.914V232.012Z"/><path fill="#51E5FF" d="M369 232H341V287H369V232Z"/><path fill="#fff" d="M369 293H341V311H369V293Z"/><path fill="#51E5FF" d="M333.914 273.539H287V310.689H333.914V273.539Z"/><rect width="7" height="7" x="213" y="109" fill="#005A9E" stroke="#26FC90" stroke-width="2"/><rect width="7" height="7" x="280" y="153" fill="#005A9E" stroke="#26FC90" stroke-width="2"/><rect width="7" height="7" x="291" y="195" fill="#005A9E" stroke="#26FC90" stroke-width="2"/><rect width="7" height="7" x="312" y="140" fill="#005A9E" stroke="#26FC90" stroke-width="2"/><rect width="7" height="7" x="406" y="110" fill="#005A9E" stroke="#26FC90" stroke-width="2"/><rect width="7" height="7" x="468" y="137" fill="#005A9E" stroke="#26FC90" stroke-width="2"/><rect width="7" height="7" x="447" y="98" fill="#005A9E" stroke="#26FC90" stroke-width="2"/><rect width="7" height="7" x="150" y="88" fill="#005A9E" stroke="#26FC90" stroke-width="2"/><rect width="7" height="7" x="125" y="136" fill="#005A9E" stroke="#26FC90" stroke-width="2"/></svg>