<svg xmlns="http://www.w3.org/2000/svg" width="600" height="450" fill="none" viewBox="0 0 600 450"><path fill="#005A9E" d="M600 0H0V450H600V0Z"/><path stroke="#004578" stroke-miterlimit="10" stroke-width="10" d="M515 33H87V417H515V33Z"/><path stroke="#26FC90" stroke-miterlimit="10" stroke-width="2" d="M286 65V122"/><path stroke="#26FC90" stroke-miterlimit="10" stroke-width="2" d="M300 65V122"/><path stroke="#26FC90" stroke-miterlimit="10" stroke-width="2" d="M314 65V122"/><path stroke="#26FC90" stroke-miterlimit="10" stroke-width="2" d="M480 167.5H390"/><path stroke="#26FC90" stroke-miterlimit="10" stroke-width="2" d="M480 181.5H390"/><path stroke="#26FC90" stroke-miterlimit="10" stroke-width="2" d="M480 195.5H390"/><path stroke="#26FC90" stroke-miterlimit="10" stroke-width="2" d="M480 243.5H390"/><path stroke="#26FC90" stroke-miterlimit="10" stroke-width="2" d="M480 257.5H390"/><path stroke="#26FC90" stroke-miterlimit="10" stroke-width="2" d="M480 271.5H390"/><path stroke="#26FC90" stroke-miterlimit="10" stroke-width="2" d="M210 168H120"/><path stroke="#26FC90" stroke-miterlimit="10" stroke-width="2" d="M210 182H120"/><path stroke="#26FC90" stroke-miterlimit="10" stroke-width="2" d="M210 196H120"/><path stroke="#26FC90" stroke-miterlimit="10" stroke-width="2" d="M210 244H120"/><path stroke="#26FC90" stroke-miterlimit="10" stroke-width="2" d="M210 258H120"/><path stroke="#26FC90" stroke-miterlimit="10" stroke-width="2" d="M210 272H120"/><path fill="#0078D4" d="M333 0H267V66H333V0Z"/><path fill="#0078D4" d="M120 148H54V214H120V148Z"/><path fill="#0078D4" d="M546 148H480V214H546V148Z"/><path fill="#0078D4" d="M120 225H54V291H120V225Z"/><path fill="#0078D4" d="M546 225H480V291H546V225Z"/><path stroke="#26FC90" stroke-miterlimit="10" stroke-width="2" d="M286 329V386"/><path stroke="#26FC90" stroke-miterlimit="10" stroke-width="2" d="M300 329V386"/><path stroke="#26FC90" stroke-miterlimit="10" stroke-width="2" d="M314 329V386"/><path fill="#0078D4" d="M333 384H267V450H333V384Z"/><path fill="#004578" d="M404 121H196V329H404V121Z"/><path fill="#2B88D8" d="M390 135H210V276H390V135Z"/><path fill="#004578" d="M244 150H237V264H244V150Z"/><path fill="#004578" d="M280 150H273V264H280V150Z"/><path fill="#004578" d="M316 150H309V264H316V150Z"/><path fill="#51E5FF" d="M254 172H228V188H254V172Z"/><path fill="#51E5FF" d="M290 214H264V230H290V214Z"/><path fill="#51E5FF" d="M326 198H300V214H326V198Z"/><path fill="#51E5FF" d="M375 151H336V214H375V151Z"/><path fill="#fff" d="M375 223H336V263H375V223Z"/><path fill="#51E5FF" d="M538 156H488V172H538V156Z"/><path fill="#51E5FF" d="M292 56V6L276 6V56H292Z"/><path fill="#51E5FF" d="M323 27V6L298 6V27L323 27Z"/><path fill="#51E5FF" d="M323 56V33L298 33V56H323Z"/><path fill="#51E5FF" d="M292 442V392H276V442H292Z"/><path fill="#51E5FF" d="M323 413V392H298V413H323Z"/><path fill="#51E5FF" d="M323 442V419H298V442H323Z"/><path fill="#51E5FF" d="M538 177H488V203H538V177Z"/><path fill="#51E5FF" d="M538 233H488V249H538V233Z"/><path fill="#51E5FF" d="M538 254H488V280H538V254Z"/><path fill="#51E5FF" d="M112 233H62V249H112V233Z"/><path fill="#51E5FF" d="M112 254H62V280H112V254Z"/><path fill="#51E5FF" d="M112 156H62V172H112V156Z"/><path fill="#51E5FF" d="M112 177H62V203H112V177Z"/></svg>